<svg xmlns="http://www.w3.org/2000/svg" viewBox="0 0 64 64"><path d="M15.1 2.9C9.2 17.5 0.5 33.1 4.7 51.8L24.8 39.1l-1.4 3.1c0 0-4.2 1.8-5.7 5.7l-3.1 2.2C12.1 48.3 7.8 51.9 5.4 53.4 13.6 67.9 47.9 66 57.7 52.3 55.4 51.2 52.1 48 48.7 49l-3.4-2.1c-0.7-3.3-5-5.3-5-5.3L38.6 38.2 58.5 51C65.5 33.5 51.8 11.6 47.5 2.1 34.7 12.9 35.4 30.9 35.5 33 33.2 32.6 30.7 32.6 28.4 32.9 29.4 29.2 28.1 14.1 15.1 2.9Zm10.7 45.3c0.3 0.9 2.2 6.6 2.2 6.6l8.6 0.2c0.3-1 0.4-1.9 0.5-2.8l2.5-1.6-0.3 2.5c0.9-0.4 3-1.1 4-0.6 0.8 0.5 0.5 2.3-0.7 4.8-1 1.3-3.7 2.7-3.7 2.7 0 0 2.2-3 2.4-6 0.1-1.4-1.4-0.5-2.1-0.2-0.2 0.9-1 2.9-1.6 3.7-0.8 1.1-4.6 3.4-4.6 3.4 1-1.2 2.3-2.7 3-4.1l-7.4-0.2 0.8 2.8-1.9 1c0 0-1.2-4.3-1.6-5.2-0.1 0.5-0.4 1.3-1.5 2.2-1.6 1.3-2.7 2.3-4.6 3.2 1.8-1.6 3.9-3.4 4.4-6 0.4-2.6-0.1-3.3-0.5-4.7z" style="stroke-width:0.3px;fill:#222;stroke:#bd86ff"/></svg>
